<svg version="1.1"
     xmlns="http://www.w3.org/2000/svg"
     xmlns:xlink="http://www.w3.org/1999/xlink" id="snapshot-80943" width="250" height="180" viewBox="0 0 250 180">
    <desc>This image was made on Patterninja.com</desc>
    <defs>
        <!-- image 79218 -->
        <g id="transformed-79218" data-image="79218" transform="translate(91, -3) rotate(0, 35, 35)">
            <g>
                <svg version="1.1" width="70px" height="70px" viewBox="0 0 70 70">
                    <g id="original-79218">
                        <svg xmlns="http://www.w3.org/2000/svg" viewBox="0 0 32 32"
                             xmlns:xlink="http://www.w3.org/1999/xlink" version="1.1"
                             preserveAspectRatio="xMidYMid meet">
                            <path
                                d="M23.97 19.732h4.292v-8.53H3.738v7.997c0 5.594 4.535 10.129 10.129 10.129 5.414 0 9.824-4.251 10.102-9.596zm.027-7.464h3.199v6.397h-3.199v-6.398zm-10.13 15.994c-4.997 0-9.063-4.066-9.063-9.063v-6.931H22.93v6.931c0 4.998-4.066 9.063-9.063 9.063z"
                                fill="rgba(161, 98, 7, 1)" stroke="none"/>
                            <path d="M3.738 30.394h20.259v-1.066H3.738z" fill="rgba(161, 98, 7, 1)" stroke="none"/>
                            <path d="M9.069 3.205h1.066v4.798H9.069V3.205z" fill="rgba(161, 98, 7, 1)" stroke="none"/>
                            <path d="M17.599 3.205h1.066v4.798h-1.066V3.205z" fill="rgba(161, 98, 7, 1)" stroke="none"/>
                            <path d="M13.334 1.606H14.4v6.398h-1.066V1.607z" fill="rgba(161, 98, 7, 1)" stroke="none"/>
                        </svg>
                    </g>
                </svg>
            </g>
        </g>
        <!-- /image 79218 -->

        <!-- image 84611 -->
        <g id="transformed-84611" data-image="84611" transform="translate(213, -4) rotate(0, 35, 35)">
            <g>
                <svg version="1.1" width="70px" height="70px" viewBox="0 0 70 70">
                    <g id="original-84611">
                        <svg xmlns="http://www.w3.org/2000/svg" fill="#000000" viewBox="0 0 50 50"
                             xmlns:xlink="http://www.w3.org/1999/xlink" version="1.1"
                             preserveAspectRatio="xMidYMid meet">
                            <path
                                d="M15.428 3a3.007 3.007 0 0 0-2.907 2.256L12.074 7H12c-.866 0-1.657.293-2.236.79-.58.495-.949 1.148-1.198 1.835C8.068 10.999 8 12.578 8 14a1 1 0 0 0 1 1h1.12l3.85 30.018a1 1 0 0 0 .005.025C14.16 46.238 15.205 47 16.367 47h17.264c1.163 0 2.207-.764 2.392-1.957a1 1 0 0 0 .004-.025L39.881 15H41a1 1 0 0 0 1-1c0-1.422-.068-3.001-.566-4.375-.25-.687-.618-1.34-1.198-1.836S38.866 7 38 7h-.094l-.431-1.727a1 1 0 0 0 0-.002A3.01 3.01 0 0 0 34.562 3H15.428zm0 2h19.134c.465 0 .858.308.971.758L35.843 7H14.14l.32-1.248A.993.993 0 0 1 15.428 5zm-2.516 3.996A1 1 0 0 0 13 9h24a1 1 0 0 0 .064-.002 1 1 0 0 0 .061.002H38c.46 0 .706.11.938.309.23.198.447.53.617.998.247.682.275 1.715.324 2.693H11.166a1 1 0 0 0-.21-.014 1 1 0 0 0-.12.014h-.715c.049-.978.077-2.01.324-2.693.17-.468.386-.8.617-.998C11.294 9.11 11.541 9 12 9h.85a1 1 0 0 0 .062-.004zM12.137 15h25.726l-1.154 9h-4.725c-1.324-2.915-3.889-4.988-6.992-4.996-.046-.002-.09 0-.135.004-3.07.052-5.579 2.115-6.869 4.992h-4.697l-1.154-9zm12.808 5.998c.021.001.003.002.03.002 2.418 0 4.5 1.683 5.476 4.344a1 1 0 0 0 .938.656h5.062l-.64 5h-4.422a1 1 0 0 0-.942.66c-.22.61-.47 1.169-.775 1.637-1.134 1.737-2.787 2.679-4.584 2.701h-.067c-1.775 0-3.429-.902-4.59-2.6a1 1 0 0 0 0-.002c-.34-.496-.619-1.09-.857-1.74a1 1 0 0 0-.94-.656H14.19l-.64-5H18.59a1 1 0 0 0 .94-.66c.948-2.632 2.982-4.313 5.388-4.34a1 1 0 0 0 .027-.002zM24.94 23c-1.234.013-2.274.778-2.937 1.795-.663 1.017-1.023 2.325-1.008 3.748.016 1.423.405 2.724 1.09 3.727.685 1.002 1.742 1.743 2.977 1.73 1.234-.013 2.274-.778 2.937-1.795.663-1.017 1.023-2.325 1.008-3.748-.016-1.423-.405-2.724-1.09-3.727-.685-1.002-1.742-1.743-2.977-1.73zm.022 2c.425-.005.883.245 1.303.86.42.614.73 1.556.742 2.619.011 1.062-.277 2.01-.684 2.634-.406.624-.858.882-1.283.887-.425.005-.883-.245-1.303-.86-.42-.614-.73-1.556-.742-2.619-.011-1.062.277-2.01.684-2.634.406-.624.858-.882 1.283-.887zm-10.516 8h3.576c.225.52.433 1.048.76 1.525 1.484 2.17 3.772 3.473 6.24 3.473h.07a1 1 0 0 0 .01 0c2.5-.027 4.794-1.383 6.245-3.607a1 1 0 0 0 .002 0c.288-.442.467-.92.666-1.391h3.54L34.05 44.736c-.007.042-.221.264-.418.264H16.367c-.193 0-.41-.224-.416-.264L14.445 33z"
                                fill="rgba(161, 98, 7, 1)" stroke="none"/>
                        </svg>
                    </g>
                </svg>
            </g>
        </g>
        <!-- /image 84611 -->

        <!-- image 20333 -->
        <g id="transformed-20333" data-image="20333" transform="translate(24, 89.66) rotate(0, 35, 34)">
            <g>
                <svg version="1.1" width="70px" height="68px" viewBox="0 0 70 68">
                    <g id="original-20333">
                        <svg xmlns="http://www.w3.org/2000/svg" fill="#000000" viewBox="-3.67 0 122.88 122.88"
                             xmlns:xlink="http://www.w3.org/1999/xlink" version="1.1"
                             preserveAspectRatio="xMidYMid meet">
                            <path
                                d="M17.31 26.83v84.88c0 .06 0 .12-.01.17h23.01v-8.87h36.73v8.87h20.79c0-.05-.01-.09-.01-.14V26.83h-6.57v10.44H69.84v12.29c0 .5-.4.9-.9.9H64.7v5.55h-3.91v-5.55h-4.46v5.55h-3.91v-5.55h-4.25c-.5 0-.9-.4-.9-.9V37.27H26.09V26.83h-8.78zm22.41 38.43H77.9c.72 0 1.38.3 1.86.77.48.48.77 1.14.77 1.86v1.19h5.62c1.3 0 2.48.53 3.33 1.38.03.03.07.07.1.11.8.85 1.29 1.98 1.29 3.22v5.51c0 1.48-.61 2.83-1.58 3.81-.98.98-2.32 1.58-3.81 1.58h-6.1c-2.05 6.14-6.62 10.37-12.03 12.57-2.79 1.14-5.82 1.72-8.85 1.74-3.03.02-6.05-.54-8.82-1.69-7.1-2.93-12.6-9.65-12.6-20.44v-8.98c0-.72.3-1.38.77-1.86.48-.47 1.14-.77 1.87-.77zm46.43 6.96h-5.52v9.36h4.85c.62 0 1.19-.26 1.6-.67.41-.41.67-.98.67-1.6V73.8c0-.41-.15-.78-.41-1.06l-.06-.06c-.3-.28-.69-.46-1.13-.46zm-8.74-3.83H40.2v8.5c0 9.32 4.65 15.08 10.66 17.56 2.39.99 5.01 1.47 7.63 1.45 2.62-.01 5.25-.53 7.69-1.52 6.28-2.55 11.24-8.35 11.24-17.1v-8.89h-.01zm-63.45 43.5c-.01-.06-.01-.11-.01-.17V26.83H1.56c-.86 0-1.56-.7-1.56-1.56V1.56C0 .7.7 0 1.56 0h112.41c.86 0 1.56.7 1.56 1.56v23.71c0 .86-.7 1.56-1.56 1.56H101.2v84.92c0 .05 0 .09-.01.14h12.78v10.99H1.56v-10.99h12.4zM46.25 6.4h25.04c.44 0 .8.39.8.88V19.3c0 .49-.36.88-.8.88H46.25c-.44 0-.8-.39-.8-.88V7.28c0-.49.36-.88.8-.88zm21.79 31.78H49.07v10.48h18.98V38.18h-.01zm44.13-34.82H3.36v20.1h108.81V3.36z"
                                fill="rgba(161, 98, 7, 1)" stroke="none"/>
                        </svg>
                    </g>
                </svg>
            </g>
        </g>
        <!-- /image 20333 -->

        <!-- image 00735 -->
        <g id="transformed-00735" data-image="00735" transform="translate(149, 85.62) rotate(0, 35, 35)">
            <g>
                <svg version="1.1" width="70px" height="70px" viewBox="0 0 70 70">
                    <g id="original-00735">
                        <svg xmlns="http://www.w3.org/2000/svg" fill="#000000" viewBox="0 0 195.643 195.643"
                             xmlns:xlink="http://www.w3.org/1999/xlink" version="1.1"
                             preserveAspectRatio="xMidYMid meet">
                            <path
                                d="M140.077 83.148c-6.262-5.114-14.408-7.817-23.561-7.817-2.081 0-4.226.141-6.406.415-1.443-6.771-4.145-12.974-6.984-19.485-5.834-13.367-14.315-24.8-24.525-33.061-10.216-8.266-21.22-12.635-31.822-12.635-4.931 0-9.652.969-14.033 2.882-11.815 5.162-19.97 16.559-22.96 32.091-2.901 15.07-.583 32.341 6.531 48.633 6.706 15.319 17.428 28.571 29.685 36.789-8.723 23.075-5.398 44.995 8.891 56.653 6.438 5.252 14.707 8.029 23.911 8.029 18.913 0 40.137-11.623 55.387-30.33 11.236-13.773 18.116-29.783 19.372-45.082 1.291-15.76-3.498-28.93-13.486-37.082zm-69.597 12.2c-1.694-2.413-3.517-4.644-5.664-6.936a4.67 4.67 0 0 0-.14-.142c-22.954-21.769-26.358-35.275-25.17-42.772a14.866 14.866 0 0 1 1.359-4.297c-.108 3.059.256 5.881 1.318 8.557 1.898 4.787 5.694 8.637 11.438 14.467 3.863 3.92 8.672 8.797 14.534 15.578 3.362 3.885 5.857 7.314 7.854 10.817a92.22 92.22 0 0 0-5.529 4.728zM22.5 91.467c-13.381-30.645-7.572-62.87 12.946-71.834 3.523-1.538 7.335-2.318 11.331-2.318 18.832 0 39.459 17.125 50.161 41.645 2.78 6.375 5.237 12.006 6.538 18.018-7.547 1.844-15.042 5.149-21.958 9.683-2.151-3.673-4.789-7.267-8.256-11.274-6.006-6.946-10.9-11.911-14.832-15.901-11.021-11.181-12.714-12.9-9.369-27.095a3.377 3.377 0 0 0-4.693-3.842c-.393.181-9.648 4.547-11.503 15.731-2.195 13.243 6.92 29.668 27.094 48.818 2.154 2.307 3.946 4.542 5.618 7.023-1.625 1.662-3.252 3.431-4.786 5.324a92.877 92.877 0 0 0-12.101 19.176c-10.764-7.557-20.185-19.435-26.19-33.154zm106.457 69.579c-14.003 17.177-33.221 27.847-50.156 27.847-7.631 0-14.424-2.252-19.646-6.51-12.51-10.206-14.729-30.438-5.763-51.738 3.397-7.752 7.276-14.24 11.869-19.839 2.288-2.827 4.253-5.062 6.104-6.938.227-.225.454-.453.688-.682l.114-.113c.318-.315.645-.633.978-.959 3.182-3.086 6.212-5.659 9.238-7.853 8.165-5.693 17.494-9.832 25.615-11.359l.004-.001c2.924-.543 5.789-.819 8.514-.819 7.686 0 14.177 2.118 19.292 6.296 17.356 14.164 14.284 46.763-6.851 72.668z"
                                fill="rgba(161, 98, 7, 1)" stroke="none"/>
                            <path
                                d="M104.111 103.339c-6.57 5.628-12.329 14.249-17.109 25.614-2.13 5.025-3.82 9.73-5.318 14.806-8.332 23.381-21.456 24.533-21.968 24.569-1.497.023-2.756 1.027-3.156 2.471s.242 2.975 1.513 3.766c.213.133 5.306 3.25 12.506 3.25 9.464 0 22.862-5.262 32.954-30.322l1.521-3.78c11.607-28.892 14.023-34.903 33.048-39.636a3.375 3.375 0 0 0 .794-6.243c-.223-.121-5.542-2.957-13.162-2.957-7.808 0-15.084 2.848-21.623 8.462zm-5.322 37.856l-1.518 3.774c-6.874 17.071-16.104 26.095-26.692 26.095h-.075c5.696-3.76 12.568-11.039 17.572-25.133.021-.059.04-.117.058-.176a128.445 128.445 0 0 1 5.087-14.176c4.374-10.398 9.516-18.176 15.285-23.116 4.942-4.245 10.337-6.531 16.047-6.808-12.321 6.083-16.49 16.458-25.764 39.54z"
                                fill="rgba(161, 98, 7, 1)" stroke="none"/>
                            <path
                                d="M159.659 36.323c-2.941-2.045-5.423-3.691-7.611-5.144-10.667-7.079-10.871-7.214-10.285-17.038a3.375 3.375 0 1 0-5.393-2.903c-.312.234-7.641 5.832-6.99 15 .622 8.775 8.28 17.256 22.763 25.208 10.69 6.766 11.102 11.205 10.573 12.355-.529 1.15-.147 2.797.996 3.802 1.429 1.257 3.588.419 4.246-.07.236-.176 5.799-4.394 5.682-11.649-.105-6.609-4.808-13.19-13.981-19.561zm-4.001 9.358a3.192 3.192 0 0 0-.178-.105c-15.39-8.43-19.022-15.395-19.361-19.753a9.887 9.887 0 0 1-.015-.239c1.693 4.07 5.357 6.668 12.212 11.218a398.448 398.448 0 0 1 7.492 5.063c7.111 4.94 10.941 9.78 11.081 14.001-1.987-3.025-5.414-6.518-11.231-10.185z"
                                fill="rgba(161, 98, 7, 1)" stroke="none"/>
                            <path
                                d="M177.05 19.938C168.029 7.639 154.511 0 141.77 0c-6.157 0-11.87 1.802-16.523 5.213-14.701 10.794-15.382 34.944-1.517 53.836 9.023 12.295 22.543 19.933 35.285 19.934h.003c6.156 0 11.871-1.803 16.526-5.214 7.269-5.333 11.362-13.974 11.527-24.33.159-10.009-3.4-20.487-10.021-29.501zm-5.497 48.387c-3.539 2.593-7.756 3.907-12.535 3.907h-.002c-10.633-.001-22.069-6.583-29.844-17.177-11.663-15.891-11.633-35.81.067-44.4 3.486-2.555 7.819-3.905 12.531-3.905 10.632 0 22.065 6.583 29.838 17.183 5.756 7.835 8.851 16.855 8.714 25.399-.131 8.194-3.247 14.94-8.769 18.993z"
                                fill="rgba(161, 98, 7, 1)" stroke="none"/>
                        </svg>
                    </g>
                </svg>
            </g>
        </g>
        <!-- /image 00735 -->
    </defs>
    <rect x="0" y="0" width="250" height="180" fill="rgba(31,41,55,1)"></rect>
    <use xlink:href="#transformed-79218" transform="translate(-250, -180)"></use>
    <use xlink:href="#transformed-79218" transform="translate(0, -180)"></use>
    <use xlink:href="#transformed-79218" transform="translate(250, -180)"></use>
    <use xlink:href="#transformed-79218" transform="translate(-250, 0)"></use>
    <use xlink:href="#transformed-79218" transform="translate(0, 0)"></use>
    <use xlink:href="#transformed-79218" transform="translate(250, 0)"></use>
    <use xlink:href="#transformed-79218" transform="translate(-250, 180)"></use>
    <use xlink:href="#transformed-79218" transform="translate(0, 180)"></use>
    <use xlink:href="#transformed-79218" transform="translate(250, 180)"></use>
    <use xlink:href="#transformed-84611" transform="translate(-250, -180)"></use>
    <use xlink:href="#transformed-84611" transform="translate(0, -180)"></use>
    <use xlink:href="#transformed-84611" transform="translate(250, -180)"></use>
    <use xlink:href="#transformed-84611" transform="translate(-250, 0)"></use>
    <use xlink:href="#transformed-84611" transform="translate(0, 0)"></use>
    <use xlink:href="#transformed-84611" transform="translate(250, 0)"></use>
    <use xlink:href="#transformed-84611" transform="translate(-250, 180)"></use>
    <use xlink:href="#transformed-84611" transform="translate(0, 180)"></use>
    <use xlink:href="#transformed-84611" transform="translate(250, 180)"></use>
    <use xlink:href="#transformed-20333" transform="translate(-250, -180)"></use>
    <use xlink:href="#transformed-20333" transform="translate(0, -180)"></use>
    <use xlink:href="#transformed-20333" transform="translate(250, -180)"></use>
    <use xlink:href="#transformed-20333" transform="translate(-250, 0)"></use>
    <use xlink:href="#transformed-20333" transform="translate(0, 0)"></use>
    <use xlink:href="#transformed-20333" transform="translate(250, 0)"></use>
    <use xlink:href="#transformed-20333" transform="translate(-250, 180)"></use>
    <use xlink:href="#transformed-20333" transform="translate(0, 180)"></use>
    <use xlink:href="#transformed-20333" transform="translate(250, 180)"></use>
    <use xlink:href="#transformed-00735" transform="translate(-250, -180)"></use>
    <use xlink:href="#transformed-00735" transform="translate(0, -180)"></use>
    <use xlink:href="#transformed-00735" transform="translate(250, -180)"></use>
    <use xlink:href="#transformed-00735" transform="translate(-250, 0)"></use>
    <use xlink:href="#transformed-00735" transform="translate(0, 0)"></use>
    <use xlink:href="#transformed-00735" transform="translate(250, 0)"></use>
    <use xlink:href="#transformed-00735" transform="translate(-250, 180)"></use>
    <use xlink:href="#transformed-00735" transform="translate(0, 180)"></use>
    <use xlink:href="#transformed-00735" transform="translate(250, 180)"></use>
</svg>
